<?xml version="1.0" encoding="UTF-8" standalone="no"?>
<!DOCTYPE svg PUBLIC "-//W3C//DTD SVG 1.1//EN"
 "http://www.w3.org/Graphics/SVG/1.1/DTD/svg11.dtd">
<!-- Generated by graphviz version 2.47.0 (20210316.0004)
 -->
<!-- Title: dependencies Pages: 1 -->
<svg width="778pt" height="360pt"
 viewBox="0.00 0.00 778.00 360.00" xmlns="http://www.w3.org/2000/svg" xmlns:xlink="http://www.w3.org/1999/xlink">
<g id="graph0" class="graph" transform="scale(1 1) rotate(0) translate(4 356)">
<title>dependencies</title>
<polygon fill="white" stroke="transparent" points="-4,4 -4,-356 774,-356 774,4 -4,4"/>
<text text-anchor="start" x="364.01" y="-42.4" font-family="Times-12" font-weight="bold" font-size="14.00">Legend</text>
<polygon fill="#ffffb3" stroke="transparent" points="151,-10 151,-30 171,-30 171,-10 151,-10"/>
<text text-anchor="start" x="174.63" y="-15.4" font-family="Times-12" font-size="14.00"> &#160;Declarations</text>
<polygon fill="#8dd3c7" stroke="transparent" points="264,-10 264,-30 284,-30 284,-10 264,-10"/>
<text text-anchor="start" x="287.73" y="-15.4" font-family="Times-12" font-size="14.00"> &#160;Module</text>
<polygon fill="#80b1d3" stroke="transparent" points="350,-10 350,-30 370,-30 370,-10 350,-10"/>
<text text-anchor="start" x="373.78" y="-15.4" font-family="Times-12" font-size="14.00"> &#160;Bootstrap</text>
<polygon fill="#fdb462" stroke="transparent" points="447,-10 447,-30 467,-30 467,-10 447,-10"/>
<text text-anchor="start" x="470.67" y="-15.4" font-family="Times-12" font-size="14.00"> &#160;Providers</text>
<polygon fill="#fb8072" stroke="transparent" points="543,-10 543,-30 563,-30 563,-10 543,-10"/>
<text text-anchor="start" x="566.73" y="-15.4" font-family="Times-12" font-size="14.00"> &#160;Exports</text>
<g id="clust1" class="cluster">
<title>cluster_AdminModule</title>
<polygon fill="none" stroke="black" stroke-dasharray="1,5" points="8,-70 8,-206 184,-206 184,-70 8,-70"/>
</g>
<g id="clust3" class="cluster">
<title>cluster_AdminModule_imports</title>
<polygon fill="none" stroke="black" points="16,-78 16,-130 176,-130 176,-78 16,-78"/>
</g>
<g id="clust13" class="cluster">
<title>cluster_AppModule</title>
<polygon fill="none" stroke="black" stroke-dasharray="1,5" points="202,-146 202,-344 762,-344 762,-146 202,-146"/>
</g>
<g id="clust14" class="cluster">
<title>cluster_AppModule_declarations</title>
<polygon fill="none" stroke="black" points="632,-154 632,-206 754,-206 754,-154 632,-154"/>
</g>
<g id="clust16" class="cluster">
<title>cluster_AppModule_imports</title>
<polygon fill="none" stroke="black" points="368,-154 368,-206 624,-206 624,-154 368,-154"/>
</g>
<g id="clust18" class="cluster">
<title>cluster_AppModule_bootstrap</title>
<polygon fill="none" stroke="black" points="361,-284 361,-336 485,-336 485,-284 361,-284"/>
</g>
<g id="clust19" class="cluster">
<title>cluster_AppModule_providers</title>
<polygon fill="none" stroke="black" points="210,-154 210,-206 360,-206 360,-154 210,-154"/>
</g>
<g id="clust26" class="cluster">
<title>cluster_HomeModule</title>
<polygon fill="none" stroke="black" stroke-dasharray="1,5" points="192,-70 192,-138 652,-138 652,-70 192,-70"/>
</g>
<g id="clust28" class="cluster">
<title>cluster_HomeModule_imports</title>
<polygon fill="none" stroke="black" points="200,-78 200,-130 644,-130 644,-78 200,-78"/>
</g>
<!-- AdminRoutingModule -->
<g id="node1" class="node">
<title>AdminRoutingModule</title>
<polygon fill="#8dd3c7" stroke="black" points="167.56,-122 164.56,-126 143.56,-126 140.56,-122 24.44,-122 24.44,-86 167.56,-86 167.56,-122"/>
<text text-anchor="middle" x="96" y="-99.8" font-family="Times,serif" font-size="14.00">AdminRoutingModule</text>
</g>
<!-- AdminModule -->
<g id="node2" class="node">
<title>AdminModule</title>
<polygon fill="#8dd3c7" stroke="black" points="160.44,-198 157.44,-202 136.44,-202 133.44,-198 61.56,-198 61.56,-162 160.44,-162 160.44,-198"/>
<text text-anchor="middle" x="111" y="-175.8" font-family="Times,serif" font-size="14.00">AdminModule</text>
</g>
<!-- AdminRoutingModule&#45;&gt;AdminModule -->
<g id="edge1" class="edge">
<title>AdminRoutingModule&#45;&gt;AdminModule</title>
<path fill="none" stroke="black" d="M111,-122.01C111,-122.01 111,-151.85 111,-151.85"/>
<polygon fill="black" stroke="black" points="107.5,-151.85 111,-161.85 114.5,-151.85 107.5,-151.85"/>
</g>
<!-- AppModule -->
<g id="node4" class="node">
<title>AppModule</title>
<polygon fill="#8dd3c7" stroke="black" points="464.66,-263 461.66,-267 440.66,-267 437.66,-263 381.34,-263 381.34,-227 464.66,-227 464.66,-263"/>
<text text-anchor="middle" x="423" y="-240.8" font-family="Times,serif" font-size="14.00">AppModule</text>
</g>
<!-- AdminModule&#45;&gt;AppModule -->
<g id="edge3" class="edge">
<title>AdminModule&#45;&gt;AppModule</title>
<path fill="none" stroke="black" d="M111,-198.28C111,-219.32 111,-251 111,-251 111,-251 371.25,-251 371.25,-251"/>
<polygon fill="black" stroke="black" points="371.25,-254.5 381.25,-251 371.25,-247.5 371.25,-254.5"/>
</g>
<!-- AppComponent -->
<g id="node3" class="node">
<title>AppComponent</title>
<polygon fill="#ffffb3" stroke="black" points="745.94,-198 640.06,-198 640.06,-162 745.94,-162 745.94,-198"/>
<text text-anchor="middle" x="693" y="-175.8" font-family="Times,serif" font-size="14.00">AppComponent</text>
</g>
<!-- AppComponent&#45;&gt;AppModule -->
<g id="edge2" class="edge">
<title>AppComponent&#45;&gt;AppModule</title>
<path fill="none" stroke="black" d="M693,-198.28C693,-219.32 693,-251 693,-251 693,-251 474.89,-251 474.89,-251"/>
<polygon fill="black" stroke="black" points="474.89,-247.5 464.89,-251 474.89,-254.5 474.89,-247.5"/>
</g>
<!-- AppComponent  -->
<g id="node7" class="node">
<title>AppComponent </title>
<polygon fill="#80b1d3" stroke="black" points="477.44,-328 368.56,-328 368.56,-292 477.44,-292 477.44,-328"/>
<text text-anchor="middle" x="423" y="-305.8" font-family="Times,serif" font-size="14.00">AppComponent </text>
</g>
<!-- AppModule&#45;&gt;AppComponent  -->
<g id="edge6" class="edge">
<title>AppModule&#45;&gt;AppComponent </title>
<path fill="none" stroke="black" stroke-dasharray="1,5" d="M423,-263.11C423,-263.11 423,-281.99 423,-281.99"/>
<polygon fill="black" stroke="black" points="419.5,-281.99 423,-291.99 426.5,-281.99 419.5,-281.99"/>
</g>
<!-- AppRoutingModule -->
<g id="node5" class="node">
<title>AppRoutingModule</title>
<polygon fill="#8dd3c7" stroke="black" points="616.27,-198 613.27,-202 592.27,-202 589.27,-198 487.73,-198 487.73,-162 616.27,-162 616.27,-198"/>
<text text-anchor="middle" x="552" y="-175.8" font-family="Times,serif" font-size="14.00">AppRoutingModule</text>
</g>
<!-- AppRoutingModule&#45;&gt;AppModule -->
<g id="edge4" class="edge">
<title>AppRoutingModule&#45;&gt;AppModule</title>
<path fill="none" stroke="black" d="M552,-198.02C552,-215.37 552,-239 552,-239 552,-239 474.88,-239 474.88,-239"/>
<polygon fill="black" stroke="black" points="474.88,-235.5 464.88,-239 474.88,-242.5 474.88,-235.5"/>
</g>
<!-- HomeModule -->
<g id="node6" class="node">
<title>HomeModule</title>
<polygon fill="#8dd3c7" stroke="black" points="469.76,-198 466.76,-202 445.76,-202 442.76,-198 376.24,-198 376.24,-162 469.76,-162 469.76,-198"/>
<text text-anchor="middle" x="423" y="-175.8" font-family="Times,serif" font-size="14.00">HomeModule</text>
</g>
<!-- HomeModule&#45;&gt;AppModule -->
<g id="edge5" class="edge">
<title>HomeModule&#45;&gt;AppModule</title>
<path fill="none" stroke="black" d="M423,-198.11C423,-198.11 423,-216.99 423,-216.99"/>
<polygon fill="black" stroke="black" points="419.5,-216.99 423,-226.99 426.5,-216.99 419.5,-216.99"/>
</g>
<!-- ThemeService -->
<g id="node8" class="node">
<title>ThemeService</title>
<ellipse fill="#fdb462" stroke="black" cx="285" cy="-180" rx="66.61" ry="18"/>
<text text-anchor="middle" x="285" y="-175.8" font-family="Times,serif" font-size="14.00">ThemeService</text>
</g>
<!-- ThemeService&#45;&gt;AppModule -->
<g id="edge7" class="edge">
<title>ThemeService&#45;&gt;AppModule</title>
<path fill="none" stroke="black" d="M285,-198.02C285,-215.37 285,-239 285,-239 285,-239 371.22,-239 371.22,-239"/>
<polygon fill="black" stroke="black" points="371.22,-242.5 381.22,-239 371.22,-235.5 371.22,-242.5"/>
</g>
<!-- HomeComponent -->
<g id="node9" class="node">
<title>HomeComponent</title>
<polygon fill="#8dd3c7" stroke="black" points="635.55,-122 632.55,-126 611.55,-126 608.55,-122 520.45,-122 520.45,-86 635.55,-86 635.55,-122"/>
<text text-anchor="middle" x="578" y="-99.8" font-family="Times,serif" font-size="14.00">HomeComponent</text>
</g>
<!-- HomeComponent&#45;&gt;HomeModule -->
<g id="edge8" class="edge">
<title>HomeComponent&#45;&gt;HomeModule</title>
<path fill="none" stroke="black" d="M568.31,-122.11C568.31,-131.9 568.31,-142 568.31,-142 568.31,-142 438.63,-142 438.63,-142 438.63,-142 438.63,-151.89 438.63,-151.89"/>
<polygon fill="black" stroke="black" points="435.13,-151.89 438.63,-161.89 442.13,-151.89 435.13,-151.89"/>
</g>
<!-- HomeRoutingModule -->
<g id="node10" class="node">
<title>HomeRoutingModule</title>
<polygon fill="#8dd3c7" stroke="black" points="502.38,-122 499.38,-126 478.38,-126 475.38,-122 363.62,-122 363.62,-86 502.38,-86 502.38,-122"/>
<text text-anchor="middle" x="433" y="-99.8" font-family="Times,serif" font-size="14.00">HomeRoutingModule</text>
</g>
<!-- HomeRoutingModule&#45;&gt;HomeModule -->
<g id="edge9" class="edge">
<title>HomeRoutingModule&#45;&gt;HomeModule</title>
<path fill="none" stroke="black" d="M407.37,-122.01C407.37,-122.01 407.37,-151.85 407.37,-151.85"/>
<polygon fill="black" stroke="black" points="403.87,-151.85 407.37,-161.85 410.87,-151.85 403.87,-151.85"/>
</g>
<!-- NotFoundComponent -->
<g id="node11" class="node">
<title>NotFoundComponent</title>
<polygon fill="#8dd3c7" stroke="black" points="346.11,-122 343.11,-126 322.11,-126 319.11,-122 207.89,-122 207.89,-86 346.11,-86 346.11,-122"/>
<text text-anchor="middle" x="277" y="-99.8" font-family="Times,serif" font-size="14.00">NotFoundComponent</text>
</g>
<!-- NotFoundComponent&#45;&gt;HomeModule -->
<g id="edge10" class="edge">
<title>NotFoundComponent&#45;&gt;HomeModule</title>
<path fill="none" stroke="black" d="M346.12,-104C353.1,-104 357.68,-104 357.68,-104 357.68,-104 357.68,-180 357.68,-180 357.68,-180 366.23,-180 366.23,-180"/>
<polygon fill="black" stroke="black" points="366.23,-183.5 376.23,-180 366.23,-176.5 366.23,-183.5"/>
</g>
</g>
</svg>
