<?xml version="1.0" encoding="UTF-8" standalone="no"?>
<!DOCTYPE svg PUBLIC "-//W3C//DTD SVG 1.1//EN"
 "http://www.w3.org/Graphics/SVG/1.1/DTD/svg11.dtd">
<!-- Generated by graphviz version 2.47.0 (20210316.0004)
 -->
<!-- Title: dependencies Pages: 1 -->
<svg width="701pt" height="284pt"
 viewBox="0.00 0.00 701.00 284.00" xmlns="http://www.w3.org/2000/svg" xmlns:xlink="http://www.w3.org/1999/xlink">
<g id="graph0" class="graph" transform="scale(1 1) rotate(0) translate(4 280)">
<title>dependencies</title>
<polygon fill="white" stroke="transparent" points="-4,4 -4,-280 697,-280 697,4 -4,4"/>
<text text-anchor="start" x="325.51" y="-42.4" font-family="Times-12" font-weight="bold" font-size="14.00">Legend</text>
<polygon fill="#ffffb3" stroke="transparent" points="112.5,-10 112.5,-30 132.5,-30 132.5,-10 112.5,-10"/>
<text text-anchor="start" x="136.13" y="-15.4" font-family="Times-12" font-size="14.00"> &#160;Declarations</text>
<polygon fill="#8dd3c7" stroke="transparent" points="225.5,-10 225.5,-30 245.5,-30 245.5,-10 225.5,-10"/>
<text text-anchor="start" x="249.23" y="-15.4" font-family="Times-12" font-size="14.00"> &#160;Module</text>
<polygon fill="#80b1d3" stroke="transparent" points="311.5,-10 311.5,-30 331.5,-30 331.5,-10 311.5,-10"/>
<text text-anchor="start" x="335.28" y="-15.4" font-family="Times-12" font-size="14.00"> &#160;Bootstrap</text>
<polygon fill="#fdb462" stroke="transparent" points="408.5,-10 408.5,-30 428.5,-30 428.5,-10 408.5,-10"/>
<text text-anchor="start" x="432.17" y="-15.4" font-family="Times-12" font-size="14.00"> &#160;Providers</text>
<polygon fill="#fb8072" stroke="transparent" points="504.5,-10 504.5,-30 524.5,-30 524.5,-10 504.5,-10"/>
<text text-anchor="start" x="528.23" y="-15.4" font-family="Times-12" font-size="14.00"> &#160;Exports</text>
<g id="clust1" class="cluster">
<title>cluster_AppModule</title>
<polygon fill="none" stroke="black" stroke-dasharray="1,5" points="8,-70 8,-268 685,-268 685,-70 8,-70"/>
</g>
<g id="clust2" class="cluster">
<title>cluster_AppModule_declarations</title>
<polygon fill="none" stroke="black" points="555,-78 555,-130 677,-130 677,-78 555,-78"/>
</g>
<g id="clust4" class="cluster">
<title>cluster_AppModule_imports</title>
<polygon fill="none" stroke="black" points="174,-78 174,-130 547,-130 547,-78 174,-78"/>
</g>
<g id="clust7" class="cluster">
<title>cluster_AppModule_providers</title>
<polygon fill="none" stroke="black" points="16,-78 16,-130 166,-130 166,-78 16,-78"/>
</g>
<g id="clust6" class="cluster">
<title>cluster_AppModule_bootstrap</title>
<polygon fill="none" stroke="black" points="296,-208 296,-260 420,-260 420,-208 296,-208"/>
</g>
<!-- AppComponent -->
<g id="node1" class="node">
<title>AppComponent</title>
<polygon fill="#ffffb3" stroke="black" points="668.94,-122 563.06,-122 563.06,-86 668.94,-86 668.94,-122"/>
<text text-anchor="middle" x="616" y="-99.8" font-family="Times,serif" font-size="14.00">AppComponent</text>
</g>
<!-- AppModule -->
<g id="node2" class="node">
<title>AppModule</title>
<polygon fill="#8dd3c7" stroke="black" points="399.66,-187 396.66,-191 375.66,-191 372.66,-187 316.34,-187 316.34,-151 399.66,-151 399.66,-187"/>
<text text-anchor="middle" x="358" y="-164.8" font-family="Times,serif" font-size="14.00">AppModule</text>
</g>
<!-- AppComponent&#45;&gt;AppModule -->
<g id="edge1" class="edge">
<title>AppComponent&#45;&gt;AppModule</title>
<path fill="none" stroke="black" d="M616,-122.28C616,-143.32 616,-175 616,-175 616,-175 409.74,-175 409.74,-175"/>
<polygon fill="black" stroke="black" points="409.74,-171.5 399.74,-175 409.74,-178.5 409.74,-171.5"/>
</g>
<!-- AppComponent  -->
<g id="node6" class="node">
<title>AppComponent </title>
<polygon fill="#80b1d3" stroke="black" points="412.44,-252 303.56,-252 303.56,-216 412.44,-216 412.44,-252"/>
<text text-anchor="middle" x="358" y="-229.8" font-family="Times,serif" font-size="14.00">AppComponent </text>
</g>
<!-- AppModule&#45;&gt;AppComponent  -->
<g id="edge5" class="edge">
<title>AppModule&#45;&gt;AppComponent </title>
<path fill="none" stroke="black" stroke-dasharray="1,5" d="M358,-187.11C358,-187.11 358,-205.99 358,-205.99"/>
<polygon fill="black" stroke="black" points="354.5,-205.99 358,-215.99 361.5,-205.99 354.5,-205.99"/>
</g>
<!-- AdminModule -->
<g id="node3" class="node">
<title>AdminModule</title>
<polygon fill="#8dd3c7" stroke="black" points="539.44,-122 536.44,-126 515.44,-126 512.44,-122 440.56,-122 440.56,-86 539.44,-86 539.44,-122"/>
<text text-anchor="middle" x="490" y="-99.8" font-family="Times,serif" font-size="14.00">AdminModule</text>
</g>
<!-- AdminModule&#45;&gt;AppModule -->
<g id="edge2" class="edge">
<title>AdminModule&#45;&gt;AppModule</title>
<path fill="none" stroke="black" d="M490,-122.02C490,-139.37 490,-163 490,-163 490,-163 409.77,-163 409.77,-163"/>
<polygon fill="black" stroke="black" points="409.77,-159.5 399.77,-163 409.77,-166.5 409.77,-159.5"/>
</g>
<!-- AppRoutingModule -->
<g id="node4" class="node">
<title>AppRoutingModule</title>
<polygon fill="#8dd3c7" stroke="black" points="422.27,-122 419.27,-126 398.27,-126 395.27,-122 293.73,-122 293.73,-86 422.27,-86 422.27,-122"/>
<text text-anchor="middle" x="358" y="-99.8" font-family="Times,serif" font-size="14.00">AppRoutingModule</text>
</g>
<!-- AppRoutingModule&#45;&gt;AppModule -->
<g id="edge3" class="edge">
<title>AppRoutingModule&#45;&gt;AppModule</title>
<path fill="none" stroke="black" d="M358,-122.11C358,-122.11 358,-140.99 358,-140.99"/>
<polygon fill="black" stroke="black" points="354.5,-140.99 358,-150.99 361.5,-140.99 354.5,-140.99"/>
</g>
<!-- HomeModule -->
<g id="node5" class="node">
<title>HomeModule</title>
<polygon fill="#8dd3c7" stroke="black" points="275.76,-122 272.76,-126 251.76,-126 248.76,-122 182.24,-122 182.24,-86 275.76,-86 275.76,-122"/>
<text text-anchor="middle" x="229" y="-99.8" font-family="Times,serif" font-size="14.00">HomeModule</text>
</g>
<!-- HomeModule&#45;&gt;AppModule -->
<g id="edge4" class="edge">
<title>HomeModule&#45;&gt;AppModule</title>
<path fill="none" stroke="black" d="M229,-122.02C229,-139.37 229,-163 229,-163 229,-163 306.12,-163 306.12,-163"/>
<polygon fill="black" stroke="black" points="306.12,-166.5 316.12,-163 306.12,-159.5 306.12,-166.5"/>
</g>
<!-- ThemeService -->
<g id="node7" class="node">
<title>ThemeService</title>
<ellipse fill="#fdb462" stroke="black" cx="91" cy="-104" rx="66.61" ry="18"/>
<text text-anchor="middle" x="91" y="-99.8" font-family="Times,serif" font-size="14.00">ThemeService</text>
</g>
<!-- ThemeService&#45;&gt;AppModule -->
<g id="edge6" class="edge">
<title>ThemeService&#45;&gt;AppModule</title>
<path fill="none" stroke="black" d="M91,-122.28C91,-143.32 91,-175 91,-175 91,-175 306.28,-175 306.28,-175"/>
<polygon fill="black" stroke="black" points="306.28,-178.5 316.28,-175 306.28,-171.5 306.28,-178.5"/>
</g>
</g>
</svg>
